<svg xmlns="http://www.w3.org/2000/svg" fill="none" viewBox="0 0 145 37"><g fill="currentColor" clip-path="url(#logo_svg__a)"><path d="M56.5 7a3.5 3.5 0 1 0 0-7 3.5 3.5 0 0 0 0 7M52 9.779c.7 1.083 1.38 1.778 1.587 3.283v18.876c-.207 1.505-.884 2.2-1.587 3.283V36h9v-.779c-.7-1.083-1.38-1.778-1.587-3.283V13.062c.207-1.505.884-2.2 1.587-3.283V9h-9zM69.5 7a3.5 3.5 0 1 0 0-7 3.5 3.5 0 0 0 0 7M65 9.779c.7 1.083 1.38 1.778 1.587 3.283v18.876c-.207 1.505-.884 2.2-1.587 3.283V36h9v-.779c-.7-1.083-1.38-1.778-1.587-3.283V13.062c.207-1.505.884-2.2 1.587-3.283V9h-9zM91.142 21.453l-5.126-2.815c-2.016-1.108-2.838-2.365-2.838-4.025 0-1.553 1.067-3.106 3.535-3.106 3.371 0 5.91 3.856 6.68 4.819l.739-.137.077-6.378-.688-.104c-.624.133-1.266.224-2.08.008C90.116 9.364 88.505 9 86.186 9 80.568 9 77 11.81 77 16.628c0 2.65 1.552 5.136 4.453 6.759l5.38 3.01c1.68.94 3.505 2.271 3.505 4.563 0 1.94-1.575 3.53-4.15 3.53-4.005 0-6.78-3.757-8.443-5.784l-.745.102v7.491l.687.105c.234-.195.722-.44 1.663-.204 1.912.477 4.074.8 6.167.8C91.16 37 96 35.18 96 28.915c0-2.762-1.258-5.485-4.852-7.46zM113.144 21.454l-5.126-2.815c-2.017-1.108-2.839-2.365-2.839-4.026 0-1.553 1.067-3.106 3.535-3.106 3.372 0 5.911 3.857 6.681 4.82l.739-.137.077-6.379-.687-.104c-.625.134-1.267.224-2.08.008-1.327-.351-2.938-.715-5.258-.715C102.569 9 99 11.81 99 16.629c0 2.65 1.552 5.136 4.453 6.76l5.381 3.01c1.68.939 3.506 2.271 3.506 4.563 0 1.94-1.575 3.53-4.151 3.53-4.005 0-6.781-3.757-8.444-5.784L99 28.81v7.367h.707c.349-.076.825-.11 1.327.023 2.402.646 4.388.8 6.482.8C113.159 37 118 35.18 118 28.914c0-2.763-1.258-5.485-4.853-7.46zM137.054 9v.795c.658 1.105 1.243 1.814 1.44 3.35v14.491c0 5.706-3.314 6.746-5.37 6.746s-5.37-1.087-5.37-6.746v-14.49c.194-1.537.779-2.246 1.44-3.351V9H120v.795c.658 1.105 1.242 1.814 1.44 3.35V27.64c0 6.817 4.792 9.361 10.8 9.361 6.929 0 11.32-2.754 11.32-9.36V13.145c.195-1.537.779-2.246 1.44-3.351V9h-7.946000000000001M17.522 9H9.42l-.13.825c.912.255 1.243 1.645.671 3.113l-7.415 19C1.52 34.072.827 34.298 0 35.22V36h7.72v-.779c-.62-.83-1.321-1.937-.953-2.944l1.577-4.37h10.294l1.63 4.37c.468 1.25-.212 2.295-.79 2.944V36H29v-.779c-.69-.874-1.152-.952-2.375-3.283zM9.49 24.708l3.885-10.14h.05l3.976 10.14zM26.289 9 25 15.457l.755.136c2.166-1.754 6.3-3.9 7.874-3.9h1.218v20.252c-.2 1.503-.997 2.2-1.55 3.277V36h9.407v-.778c-.554-1.078-1.353-1.774-1.551-3.277V11.694h1.218c1.574 0 5.711 2.145 7.874 3.9l.755-.137L49.712 9h-23.43z"></path></g><defs><clipPath id="logo_svg__a"><path fill="currentColor" d="M0 0h145v37H0z"></path></clipPath></defs></svg>
