<svg xmlns="http://www.w3.org/2000/svg" viewBox="0 0 161.65586 24.44751"><g id="contents"><path d="M154.01124,9.59466a3.64535,3.64535,0,0,1,.87578-1.22829,3.97036,3.97036,0,0,1,1.28018-.7878,4.27813,4.27813,0,0,1,3.01637,0,3.97036,3.97036,0,0,1,1.28018.7878,3.6458,3.6458,0,0,1,.87595,1.22829,4.09691,4.09691,0,0,1,0,3.15633,3.68485,3.68485,0,0,1-.87595,1.23867,3.91958,3.91958,0,0,1-1.28018.793,4.27813,4.27813,0,0,1-3.01637,0,3.91958,3.91958,0,0,1-1.28018-.793,3.6844,3.6844,0,0,1-.87578-1.23867,4.09691,4.09691,0,0,1,0-3.15633Zm.964,2.78837a2.92967,2.92967,0,0,0,.62709.97439,2.87121,2.87121,0,0,0,2.07312.87071A2.82123,2.82123,0,0,0,158.80533,14a2.8867,2.8867,0,0,0,.9328-.64262,2.98538,2.98538,0,0,0,.63232-.97962,3.33247,3.33247,0,0,0,.00523-2.41,2.92627,2.92627,0,0,0-3.8353-1.61186,2.85246,2.85246,0,0,0-1.56512,1.60149,3.41117,3.41117,0,0,0,0,2.42555Zm1.15566-3.38957h1.63785a2.21242,2.21242,0,0,1,1.27494.30065,1.122,1.122,0,0,1,.425.98468,1.08286,1.08286,0,0,1-.30588.83967,1.35318,1.35318,0,0,1-.83444.32131l1.16107,1.8969h-.90193l-1.05714-1.85548h-.539v1.85548h-.86043Zm.86043,1.814h.767a1.33821,1.33821,0,0,0,.63755-.11919.50367.50367,0,0,0,.21241-.482.42373.42373,0,0,0-.25391-.425,1.56124,1.56124,0,0,0-.63739-.114h-.72562Z"/><path d="M0,.44952H5.60571l6.772,9.14529h.04079V.44952h4.70584V15.05735h-5.381L4.74663,5.83048H4.70584v9.22687H0Z"/><path d="M20.04955,4.04071A5.97324,5.97324,0,0,1,22.08488,1.6366,8.65471,8.65471,0,0,1,25.08253.37793,17.27358,17.27358,0,0,1,28.82606,0a17.28458,17.28458,0,0,1,3.74353.37793,8.55669,8.55669,0,0,1,2.99765,1.26866A6.07469,6.07469,0,0,1,37.60258,4.0507a8.41215,8.41215,0,0,1,.73671,3.70273,8.41215,8.41215,0,0,1-.73671,3.70274,6.05192,6.05192,0,0,1-2.03534,2.40411,8.49539,8.49539,0,0,1-2.99765,1.26866,17.28458,17.28458,0,0,1-3.74353.37793,17.27358,17.27358,0,0,1-3.74353-.37793,8.4824,8.4824,0,0,1-2.99765-1.26866,6.05182,6.05182,0,0,1-2.03533-2.40411,8.407,8.407,0,0,1-.73672-3.70274A8.47813,8.47813,0,0,1,20.04955,4.04071Zm5.5849,7.0675a4.40073,4.40073,0,0,0,3.19161,1.12547,4.40073,4.40073,0,0,0,3.19161-1.12547,4.45452,4.45452,0,0,0,1.16626-3.35478,4.457,4.457,0,0,0-1.16626-3.35477,4.4078,4.4078,0,0,0-3.19161-1.12547,4.4078,4.4078,0,0,0-3.19161,1.12547,4.457,4.457,0,0,0-1.16626,3.35477A4.45452,4.45452,0,0,0,25.63445,11.10821Z"/><path d="M40.5278.44952h7.11994l3.3348,9.63644h.04079L54.35812.44952h7.11911V15.05735H56.89459V4.13228H56.8538L53.00788,15.05735H48.998L45.15206,4.13228h-.04162V15.05735H40.5278Z"/><path d="M68.71954.44952h5.95367l6.28084,14.60783h-5.217l-.8799-2.37248H68.4748l-.8799,2.37248h-5.217Zm2.96685,3.68276H71.6456L69.62025,9.65641h4.09149Z"/><path d="M81.85392.44952h5.60572l6.772,9.14529h.04079V.44952h4.70583V15.05735H93.59729L86.60055,5.83048h-.04079v9.22687H81.85392Z"/><path d="M101.7195.44952h4.869V9.10367a3.10973,3.10973,0,0,0,.79748,2.42409,4.91142,4.91142,0,0,0,5.07378,0,3.10978,3.10978,0,0,0,.79832-2.42409V.44952h4.869V9.90115a4.69387,4.69387,0,0,1-2.087,4.26548,11.39516,11.39516,0,0,1-6.11684,1.34024,11.39833,11.39833,0,0,1-6.11767-1.34024,4.69328,4.69328,0,0,1-2.08612-4.26548Z"/><path d="M125.16377.44952h5.95368l6.28083,14.60783h-5.217l-.8799-2.37248H124.919l-.8799,2.37248h-5.217Zm2.96685,3.68276h-.04079l-2.02535,5.52413H130.156Z"/><path d="M138.29733.44952h4.86983V11.661H152.066v3.3964H138.29733Z"/><path d="M0,15.7373H3.38237a3.17176,3.17176,0,0,1,2.67194,1.23855,4.60869,4.60869,0,0,1,.847,2.86308A5.76933,5.76933,0,0,1,6.401,22.27572,3.08366,3.08366,0,0,1,3.37105,24.1998H0Zm3.1577,7.48318a3.0325,3.0325,0,0,0,.93488-.121,2.06511,2.06511,0,0,0,1.07026-.86411A3.59094,3.59094,0,0,0,5.6416,20.922a5.11462,5.11462,0,0,0,.08456-.88715,4.20186,4.20186,0,0,0-.61126-2.44255,2.23711,2.23711,0,0,0-1.96852-.86987H1.15791v6.4981Z"/><path d="M8.57771,15.7373h6.14093v1.03693H9.69529v2.56928h4.64315v.97932H9.69529v2.86884h5.10976V24.1998H8.57771Z"/><path d="M17.0863,21.46922a2.37706,2.37706,0,0,0,.32733,1.16942,2.1361,2.1361,0,0,0,1.93663.84107,3.31124,3.31124,0,0,0,1.13219-.18435,1.29717,1.29717,0,0,0,.98776-1.27888,1.11878,1.11878,0,0,0-.41848-.98508,4.1512,4.1512,0,0,0-1.32825-.50118L18.61289,20.271a4.92209,4.92209,0,0,1-1.54017-.55879,1.78745,1.78745,0,0,1-.7814-1.5842,2.472,2.472,0,0,1,.768-1.87224,3.02936,3.02936,0,0,1,2.17508-.73161,3.7051,3.7051,0,0,1,2.20039.64232,2.34376,2.34376,0,0,1,.90526,2.0537H21.26282a2.17946,2.17946,0,0,0-.35346-1.04269,2.01056,2.01056,0,0,0-1.70661-.66248,1.92,1.92,0,0,0-1.39739.42629,1.36093,1.36093,0,0,0-.42526.99084.97343.97343,0,0,0,.50241.9102,7.194,7.194,0,0,0,1.49018.46085l1.14988.27076a3.46587,3.46587,0,0,1,1.28382.53575,2.03093,2.03093,0,0,1,.7814,1.72245,2.16572,2.16572,0,0,1-.99722,2.01049,4.37981,4.37981,0,0,1-2.31746.60488,3.4098,3.4098,0,0,1-2.41-.8065,2.75332,2.75332,0,0,1-.854-2.17179Z"/><path d="M24.46579,15.7373h1.1579v8.4625h-1.1579Z"/><path d="M33.11757,15.97925a3.00822,3.00822,0,0,1,1.52165,2.32157H33.50436a2.06505,2.06505,0,0,0-.84066-1.35089,2.847,2.847,0,0,0-1.60765-.42341,2.49693,2.49693,0,0,0-1.93786.88139,3.836,3.836,0,0,0-.787,2.62689,4.2607,4.2607,0,0,0,.64931,2.45694,2.38043,2.38043,0,0,0,2.11707.94764,2.67028,2.67028,0,0,0,1.8601-.66536,2.81884,2.81884,0,0,0,.754-2.15163H31.06181v-.95052h3.71567V24.1998H34.0401L33.76359,23.111a4.29384,4.29384,0,0,1-1.0143.88715,3.75229,3.75229,0,0,1-1.88705.4263,3.64238,3.64238,0,0,1-2.54459-.97357A4.66589,4.66589,0,0,1,27.156,20.09816a4.85239,4.85239,0,0,1,1.13548-3.38154,3.5859,3.5859,0,0,1,2.79354-1.19823A4.23419,4.23419,0,0,1,33.11757,15.97925Z"/><path d="M36.66123,15.7373h1.35048l4.22014,6.83736V15.7373h1.09454v8.4625H42.03846l-4.28269-6.82934V24.1998H36.66123Z"/><path d="M48.59745,15.7373h3.84672a3.77861,3.77861,0,0,1,1.56692.28227,2.003,2.003,0,0,1,1.17086,1.999,2.08165,2.08165,0,0,1-1.19247,2.022,1.73259,1.73259,0,0,1,.746.53,1.90477,1.90477,0,0,1,.27939,1.06574l.04033,1.13486a3.47778,3.47778,0,0,0,.08065.72009.7076.7076,0,0,0,.36868.51846v.19011H54.09894a1.05277,1.05277,0,0,1-.09217-.28228,5.38436,5.38436,0,0,1-.05761-.66824L53.88,21.8379a1.19243,1.19243,0,0,0-.59891-1.11182,2.41356,2.41356,0,0,0-1.00175-.15554H49.74383V24.1998H48.59745Zm3.72348,3.877a2.11418,2.11418,0,0,0,1.24082-.3226,1.33046,1.33046,0,0,0,.45654-1.16366,1.25669,1.25669,0,0,0-.63862-1.2328,2.03765,2.03765,0,0,0-.91307-.17282H49.74383v2.89188Z"/><path d="M57.08875,15.7373h6.14093v1.03693H58.20633v2.56928h4.64314v.97932H58.20633v2.86884h5.10976V24.1998H57.08875Z"/><path d="M65.59734,21.46922a2.377,2.377,0,0,0,.32733,1.16942,2.1361,2.1361,0,0,0,1.93663.84107,3.31124,3.31124,0,0,0,1.13219-.18435,1.29718,1.29718,0,0,0,.98776-1.27888,1.11878,1.11878,0,0,0-.41848-.98508,4.15118,4.15118,0,0,0-1.32826-.50118L67.12393,20.271a4.922,4.922,0,0,1-1.54017-.55879,1.78745,1.78745,0,0,1-.7814-1.5842,2.472,2.472,0,0,1,.768-1.87224,3.02936,3.02936,0,0,1,2.17508-.73161,3.7051,3.7051,0,0,1,2.20039.64232,2.34376,2.34376,0,0,1,.90526,2.0537H69.77386a2.17957,2.17957,0,0,0-.35346-1.04269,2.01056,2.01056,0,0,0-1.70661-.66248,1.91994,1.91994,0,0,0-1.39739.42629,1.36094,1.36094,0,0,0-.42527.99084.97344.97344,0,0,0,.50242.9102,7.19379,7.19379,0,0,0,1.49018.46085l1.14988.27076a3.46587,3.46587,0,0,1,1.28382.53575,2.03093,2.03093,0,0,1,.7814,1.72245,2.16572,2.16572,0,0,1-.99722,2.01049,4.37981,4.37981,0,0,1-2.31746.60488,3.40979,3.40979,0,0,1-2.41-.8065,2.75336,2.75336,0,0,1-.854-2.17179Z"/><path d="M72.827,15.7373H78.968v1.03693H73.94462v2.56928h4.64315v.97932H73.94462v2.86884h5.10976V24.1998H72.827Z"/><path d="M83.05623,15.7373h1.29411l3.07149,8.4625H86.166l-.88344-2.53472h-3.32l-.91781,2.53472H79.86953Zm1.901,4.99454-1.30295-3.73871-1.35377,3.73871Z"/><path d="M88.59414,15.7373h3.84672a3.77861,3.77861,0,0,1,1.56692.28227,2.003,2.003,0,0,1,1.17086,1.999,2.08165,2.08165,0,0,1-1.19247,2.022,1.73259,1.73259,0,0,1,.746.53,1.90477,1.90477,0,0,1,.27939,1.06574l.04033,1.13486a3.47848,3.47848,0,0,0,.08065.72009.7076.7076,0,0,0,.36868.51846v.19011H94.09563a1.05277,1.05277,0,0,1-.09217-.28228,5.38436,5.38436,0,0,1-.05761-.66824l-.06913-1.41138a1.19243,1.19243,0,0,0-.59891-1.11182,2.41356,2.41356,0,0,0-1.00175-.15554H89.74052V24.1998H88.59414Zm3.72348,3.877a2.11416,2.11416,0,0,0,1.24082-.3226A1.33046,1.33046,0,0,0,94.015,18.128a1.25669,1.25669,0,0,0-.63862-1.2328,2.03765,2.03765,0,0,0-.91307-.17282H89.74052v2.89188Z"/><path d="M102.96138,16.35369a3.00378,3.00378,0,0,1,.97356,1.92409h-1.11758a2.12851,2.12851,0,0,0-2.3082-1.77431,2.4869,2.4869,0,0,0-1.98292.87934A4.06018,4.06018,0,0,0,97.771,20.078a3.96818,3.96818,0,0,0,.68182,2.41292,2.36485,2.36485,0,0,0,2.03436.92542,2.13783,2.13783,0,0,0,1.89589-.97356,3.74225,3.74225,0,0,0,.515-1.348h1.11758a3.84053,3.84053,0,0,1-.97932,2.24092,3.46529,3.46529,0,0,1-2.688,1.08878,3.521,3.521,0,0,1-2.44851-.89353,4.688,4.688,0,0,1-1.304-3.6488,4.69866,4.69866,0,0,1,.97932-3.07253,3.55851,3.55851,0,0,1,2.9209-1.30274A3.40361,3.40361,0,0,1,102.96138,16.35369Z"/><path d="M105.5249,15.7373h1.15791v3.49676h4.34934V15.7373h1.15791v8.4625h-1.15791V20.24218h-4.34934V24.1998H105.5249Z"/></g></svg>
