<svg version="1.1" id="Layer_1" xmlns="http://www.w3.org/2000/svg" xmlns:xlink="http://www.w3.org/1999/xlink" x="0px" y="0px" viewbox="0 0 371 65.4" style="enable-background:new 0 0 371 65.4;" xml:space="preserve">
<g>
	<path d="M173.3,65c-0.4-0.1-0.7-0.3-0.9-0.7c0,0-0.1-0.1-0.1-0.1v0c0,0,0-0.1-0.1-0.1l-6.8-13.3c-0.2-0.3-0.3-0.5-0.3-0.7
		c-0.1-0.2-0.1-0.4-0.1-0.5c0-0.1,0-0.1,0-0.2c0,0,0-0.1,0-0.1c0.1-0.2,0.3-0.3,0.6-0.4c0.2-0.1,0.4-0.1,0.5-0.1c0.3,0,0.5,0,0.5,0
		v-0.4h-0.5h-0.5h-6.5v0.4c0,0,0.2,0,0.5,0c0.2,0,0.3,0,0.5,0.1c0.3,0.1,0.5,0.2,0.6,0.4c0,0,0,0.1,0.1,0.2c0,0,0,0,0,0.1v0.1
		c0,0.2-0.1,0.3-0.2,0.5c-0.1,0.2-0.3,0.5-0.4,0.8l-6.1,12.8c-0.1,0.2-0.2,0.3-0.3,0.5c-0.1,0.1-0.1,0.2-0.2,0.3c0,0,0,0,0,0
		c0,0-0.1,0.1-0.1,0.1c-0.1,0.1-0.2,0.2-0.3,0.2c-0.1,0.1-0.2,0.1-0.3,0.2c-0.6,0.2-1.2,0.2-1.2,0.2v0.3h6.8V65c0,0-0.2,0-0.5,0
		c-0.1,0-0.3,0-0.4-0.1c-0.1,0-0.3-0.1-0.4-0.2c-0.1,0-0.1-0.1-0.2-0.1c0,0,0-0.1,0-0.2c0-0.2,0.1-0.5,0.3-1l1.2-2.3h8l1.2,2.4
		c0.2,0.4,0.3,0.6,0.3,0.9c0,0.1,0,0.1,0,0.2c0,0.1-0.1,0.1-0.2,0.1c0,0,0,0,0,0c-0.1,0-0.2,0.1-0.3,0.1c-0.2,0.1-0.4,0.1-0.6,0.1
		c-0.3,0-0.5,0-0.5,0v0.4h7.9v-0.3C174.4,65.1,173.8,65.1,173.3,65z M159.5,58.8l3.1-6.1l2.8,6.1H159.5z"></path>
	<g>
		<path d="M25.7,9.4l-6.4,16.2c-0.4,0.8-0.6,1.3-0.6,1.6c0,0.8,1.9,1.1,2.9,1.3v0.7H9.7v-0.7c0.9-0.2,2.8-0.6,2.8-1.4
			c0-0.2-0.2-0.8-0.6-1.8L3.9,4.6C3.5,3.6,3,2.7,2.6,2.4C1.5,1.7,0,1.8,0,1.8V1.1h12.6v0.7c0,0-3.1,0-2.8,1.4c0.2,0.8,6,16.1,6,16.1
			S21.9,4,22.2,3c0.2-0.9-2.8-1.2-2.8-1.2V1.1h13v0.7c0,0-2.8,0.3-2.8,1.3c0,0.2,0.1,0.6,0.4,1.2l5.7,14.9l5.9-16
			c0.4-1.1-2.8-1.4-2.8-1.4V1.1h12.5v0.7c0,0-1.9-0.1-2.8,0.7c-0.3,0.3-0.6,1-1,2.1l-8.1,20.7c-0.4,1-0.6,1.6-0.6,2
			c0,0.7,1.9,1.1,2.9,1.3v0.7h-12v-0.7c1-0.2,2.8-0.6,2.8-1.4c0-0.3-0.2-0.9-0.6-1.9L25.7,9.4z"></path>
		<path d="M143.2,17.5v9.6c0,0.4,0.1,0.8,0.3,1c0.6,0.4,2.4,0.5,2.4,0.5v0.7h-11.6v-0.7c0,0,1.8-0.1,2.5-0.5c0.3-0.2,0.3-0.5,0.3-1
			v-9.6L128,4.7c-0.8-1.1-1.4-1.7-1.9-2.1c-1-0.6-2.3-0.8-2.9-0.8V1.1H137v0.7c0,0-2.7,0-2.7,1c0,0.5,0.2,1.1,0.8,1.9l5.1,7.5
			l5.2-7.5c0.6-0.8,0.8-1.4,0.8-1.6c0.1-0.5-0.2-0.7-0.3-0.8c-0.4-0.3-2.1-0.4-2.5-0.5V1.1h13.7v0.7c0,0-2.2,0.2-3,0.8
			c-0.7,0.5-1,1-1.8,2.1L143.2,17.5z"></path>
		<path d="M226.5,3.3v15.8c0,3-0.5,5.2-1.7,6.7c-2,2.7-6.1,4-12.2,4c-4.5,0-7.9-0.7-10.3-2.2c-1.4-0.8-2.3-2-2.9-3.4
			c-0.5-1.4-0.8-3.1-0.8-5.1V3.3c0-0.4,0-0.7-0.4-1c-0.6-0.5-2.3-0.5-2.3-0.5V1.1h11.6v0.7c0,0-2,0-2.4,0.4
			c-0.3,0.3-0.3,0.7-0.3,1.1v14c0,1.6,0.1,2.8,0.3,3.6c0.2,0.8,0.5,1.4,1,1.9c1.3,1.4,3.6,2.1,6.8,2.1c3.2,0,5.5-0.7,6.8-2.1
			c0.5-0.5,0.8-1.2,1-1.9c0.2-0.8,0.3-2,0.3-3.6v-14c0-0.4,0-0.8-0.3-1c-0.5-0.4-2.4-0.5-2.4-0.5V1.1h11.1v0.7c0,0-1.7,0-2.4,0.5
			C226.5,2.5,226.5,2.9,226.5,3.3z"></path>
		<path d="M81.1,4c-2-2.7-6.2-4-12.5-4C64,0,60.5,0.7,58,2.2c-1.4,0.8-2.4,2-2.9,3.4c-0.5,1.4-0.8,3.1-0.8,5.1v8.9
			c0,2,0.3,3.7,0.8,5.1c0.5,1.4,1.5,2.6,2.9,3.4c2.4,1.4,5.9,2.2,10.5,2.2c6.3,0,10.5-1.3,12.5-4c1.1-1.5,1.7-3.7,1.7-6.7v-8.9
			C82.8,7.7,82.2,5.5,81.1,4z M76.5,17.9c0,1.6-0.1,2.8-0.3,3.6c-0.2,0.8-0.5,1.4-1,1.9c-1.3,1.4-3.5,2.1-6.7,2.1
			c-3.2,0-5.4-0.7-6.7-2.1c-0.5-0.5-0.8-1.2-1-1.9c-0.2-0.8-0.3-2-0.3-3.6v-5.4c0-1.6,0.1-2.8,0.3-3.6c0.2-0.8,0.5-1.4,1-1.9
			c1.3-1.4,3.5-2.1,6.7-2.1c3.2,0,5.4,0.7,6.7,2.1c0.5,0.5,0.8,1.2,1,1.9c0.2,0.8,0.3,2,0.3,3.6V17.9z"></path>
		<path d="M118,4c-2-2.7-6.2-4-12.5-4c-4.6,0-8.1,0.7-10.5,2.2c-1.4,0.8-2.4,2-3,3.4c-0.5,1.4-0.8,3.1-0.8,5.1v8.9
			c0,2,0.3,3.7,0.8,5.1c0.5,1.4,1.5,2.6,3,3.4c2.4,1.4,5.9,2.2,10.5,2.2c6.3,0,10.5-1.3,12.5-4c1.1-1.5,1.7-3.7,1.7-6.7v-8.9
			C119.6,7.7,119.1,5.5,118,4z M113.3,17.9c0,1.6-0.1,2.8-0.3,3.6c-0.2,0.8-0.5,1.4-1,1.9c-1.3,1.4-3.5,2.1-6.7,2.1
			c-3.2,0-5.4-0.7-6.7-2.1c-0.5-0.5-0.8-1.2-1-1.9c-0.2-0.8-0.3-2-0.3-3.6v-5.4c0-1.6,0.1-2.8,0.3-3.6c0.2-0.8,0.5-1.4,1-1.9
			c1.3-1.4,3.5-2.1,6.7-2.1c3.2,0,5.4,0.7,6.7,2.1c0.5,0.5,0.8,1.2,1,1.9c0.2,0.8,0.3,2,0.3,3.6V17.9z"></path>
		<path d="M187.3,4c-2-2.7-6.2-4-12.5-4c-4.6,0-8.1,0.7-10.5,2.2c-1.4,0.8-2.4,2-3,3.4c-0.5,1.4-0.8,3.1-0.8,5.1v8.9
			c0,2,0.3,3.7,0.8,5.1c0.6,1.4,1.5,2.6,3,3.4c2.4,1.4,5.9,2.2,10.5,2.2c6.3,0,10.5-1.3,12.5-4c1.1-1.5,1.7-3.7,1.7-6.7v-8.9
			C189,7.7,188.4,5.5,187.3,4z M182.7,17.9c0,1.6-0.1,2.8-0.3,3.6c-0.2,0.8-0.5,1.4-1,1.9c-1.3,1.4-3.5,2.1-6.7,2.1
			c-3.2,0-5.4-0.7-6.7-2.1c-0.5-0.5-0.8-1.2-1-1.9c-0.2-0.8-0.3-2-0.3-3.6v-5.4c0-1.6,0.1-2.8,0.3-3.6c0.2-0.8,0.5-1.4,1-1.9
			c1.3-1.4,3.5-2.1,6.7-2.1c3.2,0,5.4,0.7,6.7,2.1c0.5,0.5,0.8,1.2,1,1.9c0.2,0.8,0.3,2,0.3,3.6V17.9z"></path>
		<path d="M243.5,10v17.1c0,0.4,0.1,0.8,0.3,1c0.6,0.5,2.4,0.5,2.4,0.5v0.7h-11.1v-0.7c0,0,1.7,0,2.4-0.5c0.2-0.2,0.3-0.5,0.3-1V3.3
			c0-0.4-0.1-0.7-0.3-1c-0.5-0.5-2.4-0.5-2.4-0.5V1.1h12.4v0.7c0,0-2.2,0-2.3,0.9c0,0.3,0.2,0.7,0.6,1.1L261.3,20V3.3
			c0-0.4-0.1-0.8-0.3-1c-0.6-0.5-2.4-0.5-2.4-0.5V1.1h11.1v0.7c0,0-1.9,0-2.4,0.5c-0.2,0.2-0.3,0.5-0.3,1v23.8c0,0.4,0.1,0.8,0.3,1
			c0.5,0.5,2.4,0.5,2.4,0.5v0.7H258v-0.7c0,0,2.3-0.1,2.3-0.9c0-0.3-0.3-0.8-1-1.4L243.5,10z"></path>
		<path d="M301.4,19.2h-6.9c-0.4,0-0.8,0.2-1,0.4c-0.3,0.4-0.5,1.9-0.5,1.9h-0.7v-8.6h0.7c0,0,0.2,1,0.5,1.7
			c0.2,0.4,0.5,0.6,0.9,0.6h14.3v0.7c0,0-1.4,0.1-2,0.5c-0.2,0.2-0.3,0.6-0.3,1v5.9c0,0.4,0.1,0.8,0.3,1c0.5,0.6,1.4,0,1.4,0
			l0.3,0.7c-5.3,3.1-10.2,5-16.2,5c-4.5,0-8.2-1.1-11.1-3.3c-3.6-2.8-5.4-6.6-5.4-11.6c0-4.6,1.6-8.3,4.8-11c3-2.6,7.1-3.9,12.1-3.9
			c1.6,0,3.1,0.2,4.5,0.5c1.4,0.3,3,0.8,4.9,1.5c0.9,0.4,1.4,0.5,1.8,0.6c0.9,0,1.4-0.9,1.4-0.9l0.6,0.3l-4,8.1l-0.7-0.3
			c0,0,0.4-0.8,0.2-1.6c-0.1-0.5-0.5-0.8-0.9-1.1c-0.9-0.6-1.8-1-3.4-1.5c-1.6-0.5-3.2-0.7-4.6-0.7c-2.9,0-5.4,0.8-7.3,2.5
			c-2.2,1.9-3.3,4.4-3.3,7.5c0,3,1.1,5.5,3.2,7.3c2,1.7,4.5,2.6,7.7,2.6c1.6,0,3.1-0.2,4.6-0.5c1.5-0.4,2.8-0.9,3.9-1.5V19.2z"></path>
		<path d="M333.1,29.2L322.8,9.8v17.3c0,0.4,0.1,0.8,0.3,1c0.6,0.5,2.4,0.5,2.4,0.5v0.7h-11.1v-0.7c0,0,1.9-0.1,2.4-0.5
			c0.2-0.2,0.3-0.5,0.3-1V3.3c0-0.4-0.1-0.7-0.3-1c-0.4-0.4-2.4-0.5-2.4-0.5V1.1h13.6v0.7c0,0-2.4,0.3-2.4,1.1c0,0.3,0.1,0.6,0.3,1
			l7.7,14.5l7.8-14.3c0.3-0.6,0.6-1.1,0.5-1.4c-0.1-0.9-2.4-0.9-2.4-0.9V1.1h13.4v0.7c0,0-1.9,0.1-2.4,0.5c-0.2,0.2-0.3,0.5-0.3,1
			v23.8c0,0.4,0.1,0.7,0.3,1c0.5,0.6,2.4,0.5,2.4,0.5v0.7h-11.6v-0.7c0,0,1.9,0,2.4-0.5c0.2-0.2,0.3-0.5,0.3-1V9.8L333.1,29.2z"></path>
		<path d="M362.1,27.1V3.3c0-0.4-0.1-0.7-0.3-1c-0.5-0.5-2.4-0.5-2.4-0.5V1.1H371v0.7c0,0-1.8,0-2.4,0.5c-0.2,0.2-0.3,0.5-0.3,1
			v23.8c0,0.4,0.1,0.7,0.3,1c0.4,0.5,2.4,0.5,2.4,0.5v0.7h-11.6v-0.7c0,0,2.1-0.1,2.4-0.5C362,27.8,362.1,27.5,362.1,27.1z"></path>
	</g>
	<g>
		<path d="M213.7,49.3c0-0.1,0-0.2,0.1-0.2c0.1-0.2,0.4-0.4,0.8-0.4c0.1,0,0.3,0,0.4,0c0.3,0,0.5,0,0.5,0v-0.4h-7.1v0.4
			c0,0,0.2,0,0.5,0c0.1,0,0.2,0,0.4,0c0.3,0.1,0.6,0.2,0.8,0.4c0,0.1,0.1,0.1,0.1,0.2c0,0,0,0.1,0,0.1v14.9c0,0,0,0,0,0
			c0,0.1,0,0.2-0.1,0.3c0,0,0,0,0,0.1c0,0-0.1,0.1-0.1,0.1c-0.2,0.1-0.4,0.2-0.6,0.2c-0.1,0-0.2,0-0.4,0c-0.3,0-0.5,0-0.5,0v0.4h0.5
			h0.4h5.4h0.4h0.5V65c0,0-0.2,0-0.5,0c-0.1,0-0.2,0-0.4,0c-0.2,0-0.4-0.1-0.6-0.2c-0.1,0-0.1-0.1-0.2-0.1c0,0,0,0,0,0
			c-0.1-0.1-0.1-0.2-0.1-0.3L213.7,49.3C213.7,49.4,213.7,49.3,213.7,49.3z"></path>
	</g>
	<g>
		<path d="M146.4,49.4c-1.2-0.8-2.9-1.2-5-1.2h-11.5v0h-0.5v0.4c0,0,0.2,0,0.5,0c0.5,0,1.2,0.2,1.2,0.8v0.9v14c0,0.1,0,0.2-0.1,0.2
			c0,0,0,0,0,0c-0.2,0.3-0.7,0.5-1.1,0.5c0,0,0,0,0,0c-0.2,0-0.4,0-0.4,0v0.4h7.1V65c0,0-0.2,0-0.5,0c0,0-0.1,0-0.2,0
			c-0.4,0-0.8-0.2-1-0.4c-0.1-0.1-0.1-0.2-0.1-0.3v-0.9v-5h6.6c2.1,0,3.7-0.4,5-1.2c1.2-0.8,1.8-2.1,1.8-4
			C148.2,51.5,147.6,50.1,146.4,49.4z M143.7,55c-0.5,0.3-1.1,0.4-1.9,0.4h-7v-4.2h7c0.7,0,1.3,0.1,1.9,0.4c0.5,0.3,0.8,0.8,0.8,1.7
			C144.4,54.2,144.2,54.7,143.7,55z"></path>
	</g>
	<g>
		<path d="M193.9,65.4h6.1h0.8v-0.3c0,0-0.4,0-0.8-0.1c-0.3-0.1-0.6-0.2-0.9-0.4c0,0,0,0,0,0c-0.1-0.1-0.2-0.2-0.3-0.3l-0.1-0.2
			l-4.2-6c1.4-0.3,2.6-0.8,3.4-1.5c0.9-0.8,1.3-1.9,1.3-3.3c0-0.9-0.2-1.7-0.5-2.4c-0.3-0.6-0.8-1.2-1.4-1.6
			c-0.6-0.4-1.3-0.7-2.2-0.9c-0.8-0.2-1.8-0.3-2.9-0.3h-11.2v0h-0.3h-0.5v0.4c0,0,0.2,0,0.5,0c0.1,0,0.2,0,0.3,0
			c0.3,0,0.7,0.2,0.9,0.4c0,0.1,0.1,0.1,0.1,0.2c0,0,0,0,0,0v14h0v0.9c0,0.1,0,0.3-0.1,0.3c0,0,0,0,0,0c0,0-0.1,0.1-0.1,0.1
			c-0.2,0.1-0.4,0.2-0.7,0.2c-0.1,0-0.2,0-0.3,0c-0.3,0-0.5,0-0.5,0v0.4l0,0v0h7.1v0h0V65c0,0-0.2,0-0.5,0c-0.1,0-0.1,0-0.2,0
			c-0.3,0-0.5-0.1-0.7-0.3c0,0-0.1-0.1-0.1-0.1c0,0,0,0-0.1-0.1c-0.1-0.1-0.1-0.2-0.1-0.3c0,0,0,0,0,0v-5.8h4.7l3.6,5.1
			c0.2,0.2,0.3,0.4,0.4,0.6c0.1,0.1,0.1,0.3,0.1,0.4c0,0,0,0.1,0,0.1c0,0.1-0.1,0.1-0.2,0.1c-0.1,0.1-0.3,0.2-0.5,0.2
			c-0.1,0-0.3,0-0.4,0.1c-0.3,0-0.4,0-0.4,0v0.4h0.4H193.9z M193.4,55.7c-0.5,0.1-1.2,0.2-2,0.2h-5.7V51h5.7c0.8,0,1.4,0.1,2,0.2
			c0.5,0.1,0.9,0.3,1.2,0.5c0.3,0.2,0.5,0.5,0.7,0.8c0.1,0.3,0.2,0.6,0.2,1c0,0.4-0.1,0.7-0.2,1c-0.1,0.3-0.3,0.6-0.7,0.8
			C194.3,55.4,193.9,55.6,193.4,55.7z"></path>
	</g>
	<path d="M239,56.2c-0.6-0.4-1.3-0.6-2.1-0.8c-0.8-0.2-1.6-0.3-2.4-0.3c-0.8-0.1-1.6-0.1-2.4-0.2c-0.8,0-1.5-0.1-2.1-0.3
		c-0.6-0.1-1.1-0.3-1.5-0.6c-0.4-0.3-0.6-0.7-0.6-1.2c0-0.4,0.1-0.7,0.4-0.9c0.3-0.2,0.6-0.5,1-0.6c0.4-0.2,0.9-0.3,1.4-0.3
		c0.5-0.1,1-0.1,1.5-0.1c0.6,0,1.3,0.1,1.9,0.2c0.6,0.1,1.2,0.3,1.8,0.5c0.5,0.2,1,0.4,1.4,0.7c0.1,0.1,0.3,0.2,0.4,0.3l0,0
		c0,0,0,0,0.1,0c0.2,0.1,0.3,0.3,0.4,0.4c0,0,0,0.1,0.1,0.1c0,0,0,0,0,0c0.1,0.3,0.1,0.6-0.1,1.1l0.4,0.2l0.9-1.7l0,0l1-1.7l0,0
		l1-1.7l-0.4-0.2c-0.3,0.4-0.5,0.6-0.8,0.7c-0.4,0.1-0.7,0-0.8-0.1c0,0,0,0,0,0c-0.1,0-0.2-0.1-0.4-0.1c-0.4-0.2-1-0.4-1.6-0.6
		c-0.6-0.2-1.4-0.4-2.2-0.6c-0.9-0.2-1.9-0.3-3-0.3c-1.4,0-2.5,0.2-3.5,0.5c-1,0.3-1.8,0.7-2.5,1.2c-0.7,0.5-1.1,1.1-1.5,1.7
		c-0.3,0.7-0.5,1.3-0.5,2c0,1,0.2,1.8,0.6,2.4c0.4,0.6,0.9,1.1,1.5,1.5c0.6,0.4,1.3,0.6,2.1,0.8c0.8,0.2,1.6,0.3,2.4,0.3
		c0.8,0.1,1.6,0.1,2.4,0.1c0.8,0,1.5,0.1,2.1,0.2c0.6,0.1,1.1,0.3,1.5,0.5c0.4,0.2,0.6,0.6,0.6,1.1c0,0.5-0.2,0.9-0.6,1.2
		c-0.4,0.3-0.9,0.5-1.5,0.7c-0.6,0.2-1.1,0.3-1.7,0.3c-0.6,0.1-1.1,0.1-1.4,0.1c-0.5,0-1.1-0.1-1.7-0.2c-0.6-0.1-1.2-0.3-1.8-0.5
		c-0.6-0.2-1.1-0.4-1.5-0.7c-0.3-0.2-0.5-0.4-0.7-0.5c-0.2-0.3-0.3-0.7,0-1.3l-0.4-0.2l-0.8,1.8l0,0l-0.7,1.6l0,0l-0.2,0.4l-0.3,0.7
		l0,0l-0.3,0.7l0.4,0.2c0.4-0.7,0.8-0.9,1.2-0.8c0.1,0,0.3,0.1,0.5,0.2c0.3,0.2,0.8,0.3,1.3,0.6c0.6,0.2,1.3,0.4,2.1,0.5
		c0.8,0.1,1.9,0.2,3.1,0.2c0.9,0,1.9-0.1,2.9-0.2c1-0.1,2-0.4,2.9-0.8c0.9-0.4,1.6-1,2.2-1.7c0.6-0.7,0.9-1.7,0.9-2.8
		c0-1-0.2-1.8-0.6-2.4C240.2,57,239.7,56.5,239,56.2z"></path>
</g>
</svg>